# xmcd
#
# Track frame offsets: 
#        150
#        16186
#        34432
#        55605
#        72649
#        93680
#        118175
#        129064
#        130854
#        155833
#        182321
#        198383
#        222988
#        242840
#        256593
#
# Disc length: 3546 seconds
#
# Revision: 0
# Processed by: cddbd v1.5.2PL0 Copyright (c) Steve Scherf et al.
# Submitted via: ExactAudioCopy v0.99pb5
#
DISCID=d30dd80f
DTITLE=Blues Preachers - More Confessions
DYEAR=1997
DGENRE=Blues
TTITLE0=Didgeridoo Blues
TTITLE1=Restless Mind
TTITLE2=Can't Fly Right
TTITLE3=Blues Preachers on the Run
TTITLE4=Borderline
TTITLE5=Never Met Someone as Beautiful as You
TTITLE6=Covergirl
TTITLE7=Shortjackje
TTITLE8=Lonesome Blues
TTITLE9=Put My Soul on Fire
TTITLE10=Face in the Crowd
TTITLE11=Hellhound
TTITLE12=Hold Me Tight
TTITLE13=Out on the Western Plane
TTITLE14=Didgeridoo Blues part II
EXTD=
EXTT0=
EXTT1=
EXTT2=
EXTT3=
EXTT4=
EXTT5=
EXTT6=
EXTT7=
EXTT8=
EXTT9=
EXTT10=
EXTT11=
EXTT12=
EXTT13=
EXTT14=
PLAYORDER=
